<svg width="876" height="200" viewBox="0 0 876 200" fill="none" xmlns="http://www.w3.org/2000/svg" preserveAspectRatio="xMinYMid meet"><path d="M298.002 41.8857C305.166 41.8857 310.953 36.0754 310.953 28.935C310.953 21.7713 305.142 15.9844 298.002 15.9844C290.838 15.9844 285.051 21.7946 285.051 28.935C285.051 36.0987 290.862 41.8857 298.002 41.8857Z" fill="#fff"></path><path d="M286.055 53V145.211C286.055 162.338 281.505 167.892 272.871 167.915C270.584 167.915 267.924 167.705 266.057 167.285L264.19 185.626C266.85 186.233 271.657 186.653 274.551 186.653C303.019 186.653 309.203 167.052 309.203 139.844V53H286.055Z" fill="#fff"></path><path fill-rule="evenodd" clip-rule="evenodd" d="M730.88 52.9462C701.805 52.9462 686.755 75.0207 686.755 106.149V106.826C686.755 140.241 702.832 159.002 726.54 159.002C739.117 159.002 749.245 154.008 756.548 146.004H756.758L758.928 156.015H777.759V16.0077L754.751 19.0077V60.2032C748.988 55.7697 740.027 52.9462 730.88 52.9462ZM733.774 138.934C716.46 138.934 710.673 124.303 710.673 106.359C710.673 88.6247 716.646 73.5739 735.01 73.5739C742.921 73.5739 750.015 76.3507 754.751 80.5742V129.717C749.618 134.944 741.894 138.934 733.774 138.934Z" fill="#fff"></path><path fill-rule="evenodd" clip-rule="evenodd" d="M584.806 105.869V106.289C584.806 142.597 602.027 159.001 634.812 158.978C646.083 158.978 654.95 157.998 665.38 156.364V137.253C656.093 138.467 646.083 139.47 635.419 139.47C618.571 139.47 610.357 131.07 608.724 116.976H672.101C672.497 113.219 672.754 108.132 672.754 104.445C672.754 69.5834 659.43 52.9692 630.729 52.9692C599.764 52.9692 584.806 75.1136 584.806 105.869ZM608.374 99.9882H649.583C649.583 84.3308 645.499 71.9868 630.098 71.9868C614.114 71.9868 608.794 85.1708 608.374 99.9882Z" fill="#fff"></path><path fill-rule="evenodd" clip-rule="evenodd" d="M337.111 54.066C347.004 53.2259 357.762 52.9926 368.146 52.9926C392.6 52.9926 407.184 62.4431 407.231 89.2077V156.038H386.72L385.693 146.027H385.436C378.413 153.588 368.192 158.021 355.102 158.021C337.764 158.021 323.997 146.797 323.997 124.56C323.997 103.885 341.241 84.6108 384.41 93.7813V87.761C384.41 75.8371 377.409 72.5002 363.642 72.5002C355.172 72.5002 348.008 73.0602 337.111 73.9936V54.066ZM384.386 109.579C366.092 104.912 347.798 110.629 347.798 124.77C347.798 134.15 354.028 139.657 363.315 139.26C370.619 138.934 378.669 135.69 384.386 130.626V109.579Z" fill="#fff"></path><path fill-rule="evenodd" clip-rule="evenodd" d="M805.807 54.066C815.701 53.2259 826.458 52.9926 836.842 52.9926C861.297 52.9926 875.904 62.4431 875.928 89.2077V156.038H855.417L854.39 146.027H854.133C847.109 153.588 836.889 158.021 823.798 158.021C806.461 158.021 792.693 146.797 792.693 124.56C792.693 103.885 809.938 84.6108 853.106 93.7813V87.761C853.106 75.8371 846.106 72.5002 832.339 72.5002C823.868 72.5002 816.705 73.0602 805.807 73.9936V54.066ZM853.083 109.579C834.789 104.912 816.495 110.629 816.495 124.77C816.495 134.15 822.725 139.657 832.012 139.26C839.316 138.934 847.366 135.69 853.083 130.626V109.579Z" fill="#fff"></path><path d="M505.819 69.2567C501.199 58.4762 491.982 52.9926 477.164 52.9926C462.86 52.9926 453.153 60.8796 447.646 69.4901H447.366C446.969 65.9199 446.036 55.9794 446.036 55.9794H426.178V155.991H448.999V103.395C448.999 87.481 458.567 74.8103 470.07 73.947C481.948 73.0603 486.638 79.4539 486.638 95.7181V155.991H509.459V103.395C509.459 86.2909 519.026 74.6703 530.53 73.947C542.361 73.2003 547.098 79.4539 547.098 95.7181V155.991H569.919V91.0278C569.919 65.9432 560.375 52.9926 537.624 52.9926C523.833 52.9926 512.469 60.3429 505.819 69.2567Z" fill="#fff"></path><path fill-rule="evenodd" clip-rule="evenodd" d="M12.6006 52.4093L78.9406 68.0434L84.6576 0H125.33L130.487 61.5331C107.152 69.5368 93.408 75.9305 77.6805 85.5909C66.06 92.708 55.5128 101.038 46.0623 110.606L0 91.1679L12.6006 52.4093ZM69.0701 199.93C96.1848 144.627 147.987 103.652 210.057 91.4246L197.433 52.5726C122.133 61.0664 58.0562 106.709 23.7779 170.809L69.0701 199.93ZM116.509 161.638L149.504 200L182.406 176.105L150.298 122.973C135.783 131.887 121.573 149.248 116.509 161.638Z" fill="#fff"></path></svg>
